PathFileType	4	(X/Y/Z)	SUBJ51_1_walk_RCNL2025.trc
DataRate	CameraRate	NumFrames	NumMarkers	Units	OrigDataRate	OrigDataStartFrame	OrigNumFrames
100	100	9	25	mm	100	1	241
Frame#	Time	R_Shoulder			L_Shoulder			C7			J_Notch			R_Elbow			L_Elbow			R_Wrist			L_Wrist			R_Asis			L_Asis			Sacral			Thoracic			Sternum			R_Thigh_Lateral			R_Knee_Lateral			R_Shank_Lateral			R_Ankle_Lateral			R_Heel			R_Toe			L_Thigh_Lateral			L_Knee_Lateral			L_Shank_Lateral			L_Ankle_Lateral			L_Heel			L_Toe		
		X1	Y1	Z1	X2	Y2	Z2	X3	Y3	Z3	X4	Y4	Z4	X5	Y5	Z5	X6	Y6	Z6	X7	Y7	Z7	X8	Y8	Z8	X9	Y9	Z9	X10	Y10	Z10	X11	Y11	Z11	X12	Y12	Z12	X13	Y13	Z13	X14	Y14	Z14	X15	Y15	Z15	X16	Y16	Z16	X17	Y17	Z17	X18	Y18	Z18	X19	Y19	Z19	X20	Y20	Z20	X21	Y21	Z21	X22	Y22	Z22	X23	Y23	Z23	X24	Y24	Z24	X25	Y25	Z25
1	0.00000000	-1339.008179	1469.798706	-33.421352	-1401.138428	1471.686646	-487.938904	-1458.589478	1583.789795	-261.678284	-1315.094727	1463.864746	-266.219788	-1345.459839	1182.303711	89.158699	-1562.806763	1188.107910	-565.046326	-1159.584595	991.917572	59.288343	-1591.802734	926.826233	-551.969788	-1367.061523	1027.006348	-117.963043	-1341.550903	1007.838074	-351.670685	-1568.127319	1059.843384	-264.446594	-1568.621948	1383.347534	-252.071136	-1278.424438	1234.839722	-264.029694	-1495.761230	632.301819	-60.790169	-1541.309448	518.991699	-117.365532	-1626.366211	304.445892	-69.731712	-1696.106934	83.766716	-205.986511	-1742.677490	88.842796	-259.189819	-1537.624878	47.683559	-230.518326	-1300.245361	640.746887	-481.125610	-1263.062988	531.640808	-432.987854	-1240.958008	347.856598	-482.359802	-1168.307983	84.357162	-390.482910	-1213.667236	73.909500	-328.736115	-1012.367310	99.622627	-383.734741
2	0.01000000	-1325.163818	1467.489258	-34.856949	-1387.192505	1468.908081	-488.869415	-1444.345581	1581.139648	-262.824951	-1300.723022	1461.275635	-267.090759	-1327.130371	1181.936890	89.675171	-1552.325684	1186.844238	-564.866272	-1137.620178	994.682098	58.366800	-1583.966003	925.851318	-551.408844	-1354.497681	1024.668335	-117.613914	-1326.906372	1004.966553	-351.222870	-1554.373535	1057.534790	-265.880341	-1554.491699	1381.246948	-252.969635	-1268.209473	1232.951782	-263.929749	-1487.034912	630.792419	-61.151871	-1534.143555	518.166992	-117.722511	-1622.135986	304.767975	-70.290764	-1695.398560	85.172676	-206.583115	-1741.807251	90.875641	-259.707581	-1537.420288	47.631893	-230.412018	-1289.408936	636.212585	-481.484650	-1249.425415	528.611145	-432.467438	-1218.383667	345.430847	-481.735962	-1132.818481	84.984428	-389.217102	-1178.047363	72.810776	-327.731110	-977.031860	107.017815	-380.997955
3	0.02000000	-1311.704102	1465.069702	-36.413227	-1373.019165	1466.040649	-489.857147	-1429.984131	1578.516724	-264.070435	-1286.224487	1458.678955	-267.973541	-1308.958008	1181.594482	90.038818	-1541.326904	1185.383545	-564.690002	-1116.478271	997.277130	57.388226	-1575.489624	924.685059	-550.877319	-1341.790527	1022.237915	-117.170570	-1312.079712	1002.135315	-350.651184	-1540.528076	1055.182495	-267.302277	-1540.269531	1379.083740	-253.981476	-1256.264404	1230.759644	-263.802856	-1477.892822	629.238770	-61.614773	-1526.536865	517.348267	-118.139046	-1617.650391	305.224823	-70.851204	-1694.617554	86.803627	-207.132874	-1740.840576	93.189316	-260.175812	-1537.203857	47.572765	-230.330215	-1277.922363	632.039612	-481.882111	-1235.499146	525.778931	-431.944244	-1196.763062	343.334198	-481.000336	-1099.721191	86.046104	-387.742828	-1144.796021	72.312340	-326.516327	-944.209045	114.210785	-378.034180
4	0.03000000	-1298.633545	1462.622437	-38.058830	-1358.692383	1463.120728	-490.887665	-1415.578125	1575.972412	-265.398163	-1271.680542	1456.120972	-268.877136	-1291.067749	1181.290405	90.240341	-1529.836060	1183.734131	-564.527954	-1096.303955	999.670746	56.363285	-1566.375549	923.331726	-550.388519	-1328.962280	1019.749512	-116.688011	-1297.159180	999.428589	-350.037720	-1526.645508	1052.798706	-268.718140	-1526.028442	1376.877075	-255.087692	-1243.046265	1228.372559	-263.660767	-1468.343750	627.679810	-62.163727	-1518.468140	516.540833	-118.596046	-1612.871582	305.828796	-71.362099	-1693.725220	88.675835	-207.530838	-1739.778442	95.811966	-260.496307	-1536.974243	47.512100	-230.269379	-1265.550781	628.424988	-482.170013	-1221.288818	523.202881	-431.374878	-1176.383545	341.509705	-480.119049	-1069.567627	87.268639	-386.134125	-1114.510864	72.163994	-325.152771	-914.397522	120.706032	-374.948792
5	0.04000000	-1285.773682	1460.252686	-39.735813	-1344.245972	1460.181396	-491.947784	-1401.159546	1573.536133	-266.797882	-1257.123291	1453.639282	-269.808411	-1273.542480	1181.030396	90.280418	-1517.860229	1181.905029	-564.390808	-1077.101685	1001.834015	55.298235	-1556.612610	921.799988	-549.955139	-1315.991089	1017.246277	-116.227531	-1282.182007	996.930176	-349.492676	-1512.713013	1050.404053	-270.140961	-1511.791138	1374.645630	-256.268799	-1228.967651	1225.898438	-263.522156	-1458.364746	626.143616	-62.778084	-1509.891968	515.740173	-119.067879	-1607.729004	306.571075	-71.777458	-1692.655273	90.802475	-207.666245	-1738.616333	98.776146	-260.570038	-1536.726562	47.457394	-230.218414	-1252.075684	625.512146	-482.217010	-1206.769165	520.920288	-430.729340	-1157.330200	339.874268	-479.070862	-1042.709351	88.335403	-384.432648	-1087.585693	72.094002	-323.672668	-887.887634	125.997833	-371.834045
6	0.05000000	-1272.849243	1458.065063	-41.378658	-1329.693359	1457.255005	-493.032043	-1386.736206	1571.225830	-268.262634	-1242.553223	1451.265625	-270.771179	-1256.448730	1180.810181	90.168472	-1505.396118	1179.908691	-564.288086	-1058.814636	1003.745575	54.199230	-1546.180603	920.101959	-549.589783	-1302.830933	1014.777649	-115.844452	-1267.138672	994.715271	-349.114960	-1498.667358	1048.038208	-271.584961	-1497.548706	1372.411499	-257.506836	-1214.347168	1223.434692	-263.405731	-1447.913208	624.644958	-63.433945	-1500.752075	514.932617	-119.527748	-1602.137085	307.429626	-72.064095	-1691.326538	93.196060	-207.445099	-1737.340820	102.119270	-260.316376	-1536.451538	47.415432	-230.159607	-1237.388062	623.372253	-481.945648	-1191.895020	518.956177	-430.006927	-1139.516357	338.338867	-477.860748	-1019.328674	88.941467	-382.634155	-1064.232056	71.862717	-322.068420	-864.800781	129.626221	-368.752991
7	0.06000000	-1259.633667	1456.134644	-42.949955	-1315.038330	1454.375000	-494.142731	-1372.303955	1569.055298	-269.787109	-1227.956299	1449.031860	-271.772858	-1239.848511	1180.615479	89.921303	-1492.439453	1177.762451	-564.229797	-1041.372986	1005.392456	53.073058	-1535.051453	918.249634	-549.299194	-1289.426025	1012.393921	-115.578903	-1251.984741	992.846252	-348.971497	-1484.418335	1045.753540	-273.057007	-1483.272217	1370.207275	-258.785187	-1199.397827	1221.065674	-263.330688	-1436.941162	623.187683	-64.105324	-1490.993408	514.095703	-119.953583	-1596.016235	308.385010	-72.202553	-1689.664551	95.874565	-206.813797	-1735.921875	105.884270	-259.687103	-1536.135864	47.389236	-230.070206	-1221.535400	622.000793	-481.351807	-1176.620239	517.325684	-429.238953	-1122.744019	336.829376	-476.530212	-999.447754	88.850624	-380.704071	-1044.485840	71.311165	-320.306183	-845.105225	131.229828	-365.726166
8	0.07000000	-1246.035645	1454.494019	-44.448463	-1300.282104	1451.578125	-495.287018	-1357.854614	1567.040283	-271.368042	-1213.316528	1446.973267	-272.826416	-1223.800903	1180.426514	89.561150	-1478.989502	1175.489990	-564.226929	-1024.714264	1006.766052	51.927445	-1523.191956	916.253632	-549.080933	-1275.719116	1010.139099	-115.452515	-1236.662231	991.369751	-349.093597	-1469.877808	1043.597412	-274.546967	-1468.921509	1368.082520	-260.087921	-1184.248047	1218.861938	-263.323486	-1425.403442	621.771606	-64.764732	-1480.569702	513.202271	-120.331871	-1589.309082	309.435364	-72.185287	-1687.626099	98.870003	-205.776611	-1734.305298	110.120644	-258.672211	-1535.762817	47.377121	-229.925400	-1204.699707	621.329895	-480.497437	-1160.927856	516.028503	-428.477997	-1106.775024	335.302887	-475.151428	-982.925537	87.940605	-378.617767	-1028.207886	70.392387	-318.363007	-828.615173	130.587189	-362.729431
9	0.08000000	-1232.079224	1453.142456	-45.888763	-1285.429443	1448.905273	-496.475159	-1343.380615	1565.203613	-273.004822	-1198.620483	1445.130981	-273.943970	-1208.348511	1180.229492	89.110939	-1465.050171	1173.122070	-564.290527	-1008.790436	1007.858551	50.771611	-1510.568176	914.125458	-548.926331	-1261.655762	1008.045654	-115.470337	-1221.119019	990.316040	-349.477783	-1454.982910	1041.607788	-276.022797	-1454.455444	1366.098145	-261.402191	-1168.974976	1216.881958	-263.417725	-1413.258911	620.395630	-65.386566	-1469.446289	512.226257	-120.659019	-1581.981567	310.602570	-72.017143	-1685.204590	102.234375	-204.395828	-1732.406616	114.886543	-257.299683	-1535.313721	47.371571	-229.702713	-1187.134766	621.251404	-479.483856	-1144.862427	515.044922	-427.784424	-1091.391235	333.756531	-473.805115	-969.454712	86.229645	-376.404877	-1015.091614	69.179970	-316.272797	-814.993225	127.643700	-359.706818
